# xmcd CD database file
#
# Track frame offsets:
#	150
#	13300
#	24456
#	39442
#	50562
#	70473
#	85395
#	104393
#	120612
#	133439
#	145022
#	166624
#	187227
#	203620
#	225250
#
# Disc length: 3230 seconds
#
# Revision: 0
# Processed by: cddbd v1.5.1PL0 Copyright (c) Steve Scherf et al.
# Submitted via: CDex 1.50
#
DISCID=d00c9c0f
DTITLE=Margarita La Diosa De La Cumbia - Mexico y su musica [CD1)
DYEAR=1900
DGENRE=Salsa
TTITLE0=Nube gris
TTITLE1=Cumbia del sida
TTITLE2=Jugabas a amar
TTITLE3=Macumba
TTITLE4=Corazon partido
TTITLE5=Si vos te vas
TTITLE6=Historia de mi vida
TTITLE7=De aquello na'
TTITLE8=Quiero amanecer
TTITLE9=Oye
TTITLE10=Escandalo
TTITLE11=Momentos
TTITLE12=Corona de espinas
TTITLE13=Plazos traicioneros
TTITLE14=No se
EXTD=
EXTT0=
EXTT1=
EXTT2=
EXTT3=
EXTT4=
EXTT5=
EXTT6=
EXTT7=
EXTT8=
EXTT9=
EXTT10=
EXTT11=
EXTT12=
EXTT13=
EXTT14=
PLAYORDER=
